<?xml version="1.0" encoding="utf-8"?>
<!-- Generator: Adobe Illustrator 16.0.0, SVG Export Plug-In . SVG Version: 6.00 Build 0)  -->
<!DOCTYPE svg PUBLIC "-//W3C//DTD SVG 1.1//EN" "http://www.w3.org/Graphics/SVG/1.1/DTD/svg11.dtd">
<svg version="1.1" id="Capa_1" xmlns="http://www.w3.org/2000/svg" xmlns:xlink="http://www.w3.org/1999/xlink" x="0px" y="0px"
	 width="216px" height="146px" viewBox="0 0 216 146" enable-background="new 0 0 216 146" xml:space="preserve">
<g>
	<path d="M147.107,83.5h-5.215c-0.762,0-1.387,0.244-1.873,0.733c-0.49,0.487-0.734,1.112-0.734,1.874v25.998
		c0,3.586-1.275,6.653-3.828,9.207c-2.553,2.553-5.622,3.828-9.207,3.828H58.464c-3.585,0-6.654-1.275-9.207-3.828
		c-2.553-2.554-3.829-5.621-3.829-9.207V44.32c0-3.585,1.276-6.653,3.829-9.206c2.553-2.553,5.622-3.829,9.207-3.829h25.762
		c0.762,0,1.387-0.245,1.875-0.733c0.488-0.489,0.732-1.113,0.732-1.874v-5.215c0-0.76-0.244-1.385-0.732-1.873
		c-0.488-0.489-1.113-0.733-1.875-0.733H58.464c-6.463,0-11.99,2.295-16.58,6.884C37.295,32.331,35,37.858,35,44.321v67.787
		c0,6.463,2.295,11.99,6.884,16.578c4.59,4.59,10.117,6.885,16.58,6.885h67.786c6.463,0,11.99-2.295,16.58-6.885
		c4.59-4.588,6.885-10.115,6.885-16.578V86.108c0-0.761-0.244-1.386-0.734-1.875C148.492,83.744,147.867,83.5,147.107,83.5z"/>
	<path d="M148.166,22.405c-1.032-1.032-2.256-1.548-3.667-1.548h-41.714c-1.412,0-2.635,0.516-3.666,1.548
		c-1.032,1.032-1.549,2.254-1.549,3.666s0.517,2.635,1.549,3.667l14.339,14.339l-53.12,53.121c-0.544,0.543-0.815,1.168-0.815,1.873
		c0,0.707,0.272,1.332,0.815,1.875l9.288,9.287c0.543,0.543,1.168,0.814,1.874,0.814s1.331-0.271,1.874-0.814l53.12-53.12
		l14.34,14.339C141.865,72.484,143.088,73,144.5,73s2.635-0.516,3.667-1.548c1.032-1.032,1.548-2.254,1.548-3.666V26.071
		C149.715,24.658,149.197,23.437,148.166,22.405z"/>
</g>
</svg>
