<?xml version="1.0" encoding="utf-8"?>
<!-- Generator: Adobe Illustrator 18.0.0, SVG Export Plug-In . SVG Version: 6.00 Build 0)  -->
<!DOCTYPE svg PUBLIC "-//W3C//DTD SVG 1.1//EN" "http://www.w3.org/Graphics/SVG/1.1/DTD/svg11.dtd">
<svg version="1.1" id="Capa_1" xmlns="http://www.w3.org/2000/svg" xmlns:xlink="http://www.w3.org/1999/xlink" x="0px" y="0px"
	 viewBox="0 0 216 146" enable-background="new 0 0 216 146" xml:space="preserve">
<g>
	<path d="M147.1,83.5h-5.2c-0.8,0-1.4,0.2-1.9,0.7c-0.5,0.5-0.7,1.1-0.7,1.9v26c0,3.6-1.3,6.7-3.8,9.2c-2.6,2.6-5.6,3.8-9.2,3.8
		H58.5c-3.6,0-6.7-1.3-9.2-3.8c-2.6-2.6-3.8-5.6-3.8-9.2V44.3c0-3.6,1.3-6.7,3.8-9.2c2.6-2.6,5.6-3.8,9.2-3.8h25.8
		c0.8,0,1.4-0.2,1.9-0.7c0.5-0.5,0.7-1.1,0.7-1.9v-5.2c0-0.8-0.2-1.4-0.7-1.9c-0.5-0.5-1.1-0.7-1.9-0.7H58.5c-6.5,0-12,2.3-16.6,6.9
		C37.3,32.3,35,37.9,35,44.3v67.8c0,6.5,2.3,12,6.9,16.6c4.6,4.6,10.1,6.9,16.6,6.9h67.8c6.5,0,12-2.3,16.6-6.9
		c4.6-4.6,6.9-10.1,6.9-16.6v-26c0-0.8-0.2-1.4-0.7-1.9C148.5,83.7,147.9,83.5,147.1,83.5z"/>
	<path d="M148.6,22c-0.7-0.7-1.6-1.1-2.7-1.1h-30.2c-1,0-1.9,0.4-2.6,1.1c-0.7,0.7-1.1,1.6-1.1,2.6s0.4,1.9,1.1,2.7l10.4,10.4
		L85.1,76c-0.4,0.4-0.6,0.8-0.6,1.4c0,0.5,0.2,1,0.6,1.4l6.7,6.7c0.4,0.4,0.8,0.6,1.4,0.6c0.5,0,1-0.2,1.4-0.6l38.4-38.4l10.4,10.4
		c0.7,0.7,1.6,1.1,2.6,1.1c1,0,1.9-0.4,2.7-1.1c0.7-0.7,1.1-1.6,1.1-2.6V24.6C149.7,23.6,149.3,22.7,148.6,22z"/>
</g>
</svg>
